<?xml version="1.0" standalone="no"?><!DOCTYPE svg PUBLIC "-//W3C//DTD SVG 1.1//EN" "http://www.w3.org/Graphics/SVG/1.1/DTD/svg11.dtd"><svg t="1750129382177" class="icon" viewBox="0 0 1024 1024" version="1.1" xmlns="http://www.w3.org/2000/svg" p-id="15514" xmlns:xlink="http://www.w3.org/1999/xlink" width="200" height="200"><path d="M534.4 294.4L189.1 606h87.2v348.7h516.3V606h87.2L534.4 294.4zM640 796.7c-16.9 28.7-105.5 86.2-105.5 86.2s-88.9-57.8-105.7-86.2c-8.4-14.3-14.4-30-13.4-50.7 1.8-36.6 28.5-66.8 61.4-66.8 33.7 0 57.6 26.9 57.6 26.9s25.3-26.9 57.6-26.9c32.8 0 59.6 30.2 61.3 66.8 1.1 20.7-4.9 36.3-13.3 50.7z m0 0" fill="#F2D6C7" p-id="15515"></path><path d="M584.6 633.7c-33.5 0-59.8 27.9-59.8 27.9S500 633.7 465 633.7c-34.1 0-61.9 31.4-63.7 69.4-1 21.5 5.2 37.8 13.9 52.6 17.4 29.6 109.7 89.5 109.7 89.5s91.9-59.7 109.5-89.5c8.7-14.9 14.9-31.1 13.9-52.6-1.8-38.1-29.6-69.4-63.7-69.4" fill="#F26161" p-id="15516"></path><path d="M899.9 539.3L541.4 215.9c-9.4-8.5-23.8-8.5-33.2 0L378.4 333v-6.2c0-13.7-11.1-24.8-24.8-24.8H251c-13.7 0-24.8 11.1-24.8 24.8v143.5l-76.4 68.9c-7.6 6.9-10.2 17.7-6.5 27.3 3.7 9.6 12.9 15.9 23.1 15.9h65.7v337.1c0 13.7 11.1 24.8 24.8 24.8h535.9c13.7 0 24.8-11.1 24.8-24.8v-337h65.7c10.3 0 19.4-6.3 23.1-15.9 3.7-9.5 1.1-20.4-6.5-27.3zM275.7 351.7h53.1v26.1l-53.1 47.9v-74zM792.8 533c-13.7 0-24.8 11.1-24.8 24.8v337.1H281.6V582.4h348.8c13.7 0 24.8-11.1 24.8-24.8 0-13.7-11.1-24.8-24.8-24.8h-375c-0.6 0-1.2 0.1-1.8 0.1h-22.9l294-265.3 294 265.3-25.9 0.1z m0 0" fill="" p-id="15517"></path><path d="M684.2 567.1c0.6 1.5 1.4 2.9 2.3 4.3 0.9 1.4 1.9 2.6 3.1 3.8 1.1 1.1 2.4 2.2 3.8 3.1 1.3 0.9 2.8 1.7 4.3 2.3 1.5 0.6 3 1.1 4.6 1.4 1.6 0.3 3.2 0.5 4.8 0.5 6.6 0 12.9-2.6 17.5-7.3 1.2-1.1 2.2-2.4 3.1-3.8 0.9-1.3 1.7-2.8 2.3-4.3 0.6-1.5 1.1-3.1 1.4-4.7 0.3-1.6 0.5-3.2 0.5-4.8 0-1.6-0.1-3.2-0.5-4.8-0.3-1.6-0.8-3.2-1.4-4.7-0.6-1.5-1.4-2.9-2.3-4.3-0.9-1.4-1.9-2.6-3.1-3.8-5.7-5.8-14.3-8.4-22.3-6.8-1.6 0.3-3.2 0.8-4.6 1.4-1.5 0.6-2.9 1.4-4.3 2.3-1.4 0.9-2.6 1.9-3.8 3.1-1.1 1.1-2.2 2.4-3.1 3.8-0.9 1.3-1.7 2.8-2.3 4.3-0.6 1.5-1.1 3.1-1.4 4.7-0.3 1.6-0.5 3.2-0.5 4.8 0 1.6 0.2 3.3 0.5 4.8 0.4 1.7 0.8 3.2 1.4 4.7z m-99.6 41.8c-24.7 0-45.6 10.6-59.5 20.3-13.8-9.8-34.5-20.3-60.1-20.3-11.5 0-22.9 2.5-33.3 7.2-30.9 13.9-53.2 46.7-55.1 85.8-1.5 30.7 9.2 52.6 17.3 66.4 17.6 29.8 86.5 77.2 111.3 93.6 2.1 1.4 4.1 2.7 6.2 4.1 4 2.6 8.7 4 13.5 4 4.7 0 9.4-1.3 13.5-4 16.2-10.5 97.8-64.6 117.3-97.7 8.1-13.8 18.8-35.7 17.3-66.3-2.5-52.3-41.3-93.1-88.4-93.1z m-59.7 206.5c-3.7-2.5-7.3-5-10.9-7.5-35.3-24.7-70.1-52.5-77.4-64.8-8-13.6-11.1-25.2-10.5-38.8 1.2-25.2 18.7-45.8 38.9-45.8 23.1 0 41.2 19.5 41.3 19.6 4.7 5.3 11.4 8.3 18.5 8.3h0.5c6.6-0.1 12.9-2.9 17.5-7.8 0.2-0.2 19.9-20.1 41.8-20.1 20.3 0 37.7 20.5 38.9 45.8 0.1 1.7 0.1 3.4 0.1 5.1 0 0.3 0 0.6-0.1 0.8-0.2 5.1-1 10.2-2.5 15.1-1.7 5.7-4.3 11.5-8 17.8-6.4 10.8-31 31.2-57.3 50.6-3.4 2.5-6.9 5-10.4 7.5-6.7 4.8-13.5 9.5-20.4 14.2z m0 0" fill="" p-id="15518"></path><path d="M345.8 94.1c-24.4 0-43.5 20.3-43.5 20.3s-18-20.3-43.5-20.3c-24.7 0-45 22.8-46.3 50.4-0.7 15.6 3.8 27.5 10.1 38.2 12.7 21.5 79.7 65.1 79.7 65.1s66.8-43.4 79.6-65.1c6.4-10.8 10.8-22.6 10.1-38.2-1.3-27.6-21.5-50.4-46.2-50.4" fill="#F26161" p-id="15519"></path><path d="M302.4 272.6c-4.8 0-9.5-1.4-13.5-4-16.9-11-73.1-48.7-87.6-73.2-6.4-10.8-14.7-27.9-13.5-52 2-41.5 33.2-74 71-74 18 0 32.9 6.6 43.7 13.4 10.8-6.8 25.8-13.4 43.2-13.4 37.8 0 69.1 32.5 71 74 1.2 24.1-7.2 41.2-13.5 52-14.6 24.8-70.6 62.3-87.4 73.3-4 2.5-8.6 3.9-13.4 3.9z m-43.6-153.7c-11 0-20.8 12.3-21.5 26.8-0.4 8.6 1.5 15.7 6.7 24.4 4.9 8.4 31.9 29.6 58.4 47.8 26.4-18.1 53.2-39.3 58.2-47.8 5.2-8.8 7.1-15.9 6.7-24.5-0.7-14.5-10.6-26.8-21.5-26.8-11.2 0-23.1 10-25.4 12.5-4.8 5.1-11.4 8.2-18.5 8-7-0.2-13.4-3.1-18-8.4-3.3-3.4-13.8-12-25.1-12z m0 0" fill="" p-id="15520"></path></svg>